<?xml version="1.0" encoding="iso-8859-1"?>
<!-- Generator: Adobe Illustrator 19.0.0, SVG Export Plug-In . SVG Version: 6.00 Build 0)  -->
<svg version="1.1" id="Layer_1" xmlns="http://www.w3.org/2000/svg" xmlns:xlink="http://www.w3.org/1999/xlink" x="0px" y="0px"
	 viewBox="0 0 512 512" style="enable-background:new 0 0 512 512;" xml:space="preserve">
<g>
	<g>
		<path d="M390.884,125.678h-16.164c-5.555-24.712-18.942-47.178-38.286-63.903c-9.158-7.918-19.404-14.321-30.345-19.077
			C303.577,18.738,283.258,0,258.641,0s-44.936,18.739-47.451,42.701c-10.875,4.727-21.063,11.079-30.176,18.93
			c-19.425,16.734-32.882,39.264-38.454,64.048h-16.163c-5.633,0-10.199,4.566-10.199,10.199v31.889
			c0,5.633,4.566,10.199,10.199,10.199h16.163c5.543,24.657,18.88,47.077,38.162,63.796c4.565,3.958,9.404,7.536,14.462,10.725
			l-15.254,70.8h-37.264c-5.633,0-10.199,4.566-10.199,10.199s4.566,10.199,10.199,10.199h32.869l-16.401,76.128
			c-0.697-0.032-1.395-0.053-2.099-0.053c-25.431,0-46.12,20.689-46.12,46.12s20.69,46.12,46.121,46.12s46.12-20.689,46.12-46.12
			c0-17.552-9.857-32.841-24.325-40.632l17.572-81.562h124.474l34.528,160.262c1.031,4.782,5.259,8.053,9.961,8.053
			c0.711,0,1.434-0.074,2.158-0.231c5.507-1.187,9.009-6.612,7.823-12.119l-33.603-155.967h4.133
			c5.633,0,10.199-4.566,10.199-10.199s-4.566-10.199-10.199-10.199h-8.526l-15.254-70.803c4.909-3.093,9.611-6.552,14.054-10.37
			c19.483-16.739,32.989-39.313,38.573-64.149h16.161c5.633,0,10.199-4.566,10.199-10.199v-31.889
			C401.084,130.244,396.517,125.678,390.884,125.678z M182.758,465.878c0,14.183-11.538,25.721-25.721,25.721
			c-14.183,0-25.721-11.538-25.721-25.721s11.538-25.721,25.721-25.721C171.22,440.157,182.758,451.695,182.758,465.878z
			 M258.641,20.398c10.612,0,19.823,6.087,24.344,14.949c-7.955-1.662-16.11-2.52-24.344-2.52c-8.234,0-16.389,0.86-24.345,2.522
			C238.817,26.486,248.029,20.398,258.641,20.398z M258.641,53.225c44.415,0,83.454,30.463,95.058,72.454H163.552
			C175.095,83.117,213.504,53.225,258.641,53.225z M200.8,323.286l13.178-61.17c14.076,5.698,29.229,8.701,44.663,8.701
			c15.426,0,30.582-3.006,44.662-8.705l13.18,61.175H200.8z M258.641,250.418c-44.459,0-83.459-30.448-95.059-72.454H353.73
			C342.179,220.513,303.737,250.418,258.641,250.418z M380.685,157.567H136.597v-11.49h244.088V157.567z"/>
	</g>
</g>
<g>
	<g>
		<path d="M379.745,323.286h-4.105c-5.633,0-10.199,4.566-10.199,10.199s4.566,10.199,10.199,10.199h4.105
			c5.633,0,10.199-4.566,10.199-10.199S385.378,323.286,379.745,323.286z"/>
	</g>
</g>
<g>
	<g>
		<path d="M157.037,454.652c-6.19,0-11.225,5.036-11.225,11.225c0,6.189,5.036,11.225,11.225,11.225s11.225-5.036,11.225-11.225
			C168.262,459.688,163.227,454.652,157.037,454.652z"/>
	</g>
</g>
<g>
</g>
<g>
</g>
<g>
</g>
<g>
</g>
<g>
</g>
<g>
</g>
<g>
</g>
<g>
</g>
<g>
</g>
<g>
</g>
<g>
</g>
<g>
</g>
<g>
</g>
<g>
</g>
<g>
</g>
</svg>
