<?xml version='1.0' encoding='iso-8859-1'?>
<!DOCTYPE svg PUBLIC '-//W3C//DTD SVG 1.1//EN' 'http://www.w3.org/Graphics/SVG/1.1/DTD/svg11.dtd'>
<svg version="1.1" xmlns="http://www.w3.org/2000/svg" viewBox="0 0 473 473" xmlns:xlink="http://www.w3.org/1999/xlink" enable-background="new 0 0 473 473">
  <g>
    <path d="m55,91.278c12.131,0 22-9.869 22-22s-9.869-22-22-22-22,9.869-22,22 9.869,22 22,22zm0-34c6.617,0 12,5.383 12,12s-5.383,12-12,12-12-5.383-12-12 5.383-12 12-12z"/>
    <path d="m55.003,74.279c1.31,0 2.6-0.53 3.53-1.46 0.93-0.94 1.47-2.23 1.47-3.54 0-1.31-0.54-2.6-1.47-3.54-0.931-0.93-2.221-1.46-3.53-1.46-1.32,0-2.61,0.53-3.54,1.46s-1.46,2.22-1.46,3.54c0,1.32 0.53,2.6 1.46,3.54 0.93,0.93 2.22,1.46 3.54,1.46z"/>
    <path d="m55,143.762c12.131,0 22-9.869 22-22s-9.869-22-22-22-22,9.869-22,22 9.869,22 22,22zm0-34c6.617,0 12,5.383 12,12s-5.383,12-12,12-12-5.383-12-12 5.383-12 12-12z"/>
    <path d="m55.003,126.759c1.31,0 2.6-0.53 3.53-1.46 0.93-0.93 1.47-2.22 1.47-3.54 0-1.31-0.54-2.6-1.47-3.53-0.931-0.93-2.221-1.47-3.53-1.47-1.32,0-2.61,0.54-3.54,1.47s-1.46,2.22-1.46,3.53c0,1.32 0.53,2.61 1.46,3.54 0.93,0.93 2.22,1.46 3.54,1.46z"/>
    <path d="m55,196.246c12.131,0 22-9.869 22-22s-9.869-22-22-22-22,9.869-22,22 9.869,22 22,22zm0-34c6.617,0 12,5.383 12,12s-5.383,12-12,12-12-5.383-12-12 5.383-12 12-12z"/>
    <path d="m55.003,179.249c1.31,0 2.6-0.54 3.53-1.47 0.93-0.93 1.47-2.22 1.47-3.53 0-1.32-0.54-2.61-1.47-3.54-0.931-0.93-2.221-1.46-3.53-1.46-1.32,0-2.61,0.53-3.54,1.46s-1.46,2.22-1.46,3.54c0,1.31 0.53,2.6 1.46,3.53 0.93,0.93 2.22,1.47 3.54,1.47z"/>
    <path d="m55,248.73c12.131,0 22-9.869 22-22s-9.869-22-22-22-22,9.869-22,22 9.869,22 22,22zm0-34c6.617,0 12,5.383 12,12s-5.383,12-12,12-12-5.383-12-12 5.383-12 12-12z"/>
    <path d="m55.003,231.729c1.31,0 2.6-0.53 3.53-1.46 0.93-0.94 1.47-2.22 1.47-3.54 0-1.31-0.54-2.6-1.47-3.53-0.931-0.93-2.221-1.47-3.53-1.47-1.32,0-2.61,0.54-3.54,1.47-0.93,0.92-1.46,2.21-1.46,3.53s0.53,2.61 1.46,3.54c0.93,0.93 2.22,1.46 3.54,1.46z"/>
    <path d="m102.5,432.691h-23.5v-162.654c9.895-1.542 17.5-10.097 17.5-20.418v-203.621c0-11.408-9.281-20.689-20.689-20.689h-41.622c-11.408,0-20.689,9.281-20.689,20.689v203.621c0,10.321 7.605,18.876 17.5,20.418v162.655h-23.5c-4.143,0-7.5,3.358-7.5,7.5s3.357,7.5 7.5,7.5h95c4.143,0 7.5-3.358 7.5-7.5s-3.357-7.501-7.5-7.501zm-74-183.072v-203.621c0-3.137 2.553-5.689 5.689-5.689h41.621c3.137,0 5.689,2.552 5.689,5.689v203.621c0,3.137-2.553,5.689-5.689,5.689h-41.621c-3.136,0.001-5.689-2.552-5.689-5.689zm17.5,183.072v-162.382h18v162.383h-18z"/>
    <path d="m418,91.278c12.131,0 22-9.869 22-22s-9.869-22-22-22-22,9.869-22,22 9.869,22 22,22zm0-34c6.617,0 12,5.383 12,12s-5.383,12-12,12-12-5.383-12-12 5.383-12 12-12z"/>
    <path d="m418.003,74.279c1.31,0 2.6-0.53 3.53-1.47 0.93-0.93 1.47-2.22 1.47-3.53 0-1.32-0.54-2.6-1.47-3.54-0.931-0.93-2.211-1.46-3.53-1.46-1.32,0-2.61,0.53-3.54,1.46-0.93,0.94-1.46,2.22-1.46,3.54 0,1.31 0.53,2.6 1.46,3.53 0.93,0.94 2.22,1.47 3.54,1.47z"/>
    <path d="m418,143.762c12.131,0 22-9.869 22-22s-9.869-22-22-22-22,9.869-22,22 9.869,22 22,22zm0-34c6.617,0 12,5.383 12,12s-5.383,12-12,12-12-5.383-12-12 5.383-12 12-12z"/>
    <path d="m418.003,126.759c1.31,0 2.6-0.53 3.53-1.46 0.93-0.93 1.47-2.22 1.47-3.54 0-1.31-0.54-2.6-1.47-3.53-0.931-0.93-2.211-1.47-3.53-1.47-1.32,0-2.61,0.54-3.54,1.47s-1.46,2.22-1.46,3.53c0,1.32 0.53,2.61 1.46,3.54 0.93,0.93 2.22,1.46 3.54,1.46z"/>
    <path d="m418,196.246c12.131,0 22-9.869 22-22s-9.869-22-22-22-22,9.869-22,22 9.869,22 22,22zm0-34c6.617,0 12,5.383 12,12s-5.383,12-12,12-12-5.383-12-12 5.383-12 12-12z"/>
    <path d="m418.003,179.249c1.31,0 2.6-0.54 3.53-1.47 0.93-0.93 1.47-2.22 1.47-3.53 0-1.32-0.54-2.61-1.47-3.54-0.931-0.93-2.211-1.46-3.53-1.46-1.32,0-2.61,0.53-3.54,1.46s-1.46,2.22-1.46,3.54c0,1.31 0.53,2.6 1.46,3.53 0.93,0.93 2.22,1.47 3.54,1.47z"/>
    <path d="m418,248.73c12.131,0 22-9.869 22-22s-9.869-22-22-22-22,9.869-22,22 9.869,22 22,22zm0-34c6.617,0 12,5.383 12,12s-5.383,12-12,12-12-5.383-12-12 5.383-12 12-12z"/>
    <path d="m418.003,231.729c1.31,0 2.6-0.53 3.53-1.46 0.93-0.94 1.47-2.22 1.47-3.54 0-1.31-0.54-2.6-1.47-3.53-0.931-0.93-2.211-1.47-3.53-1.47-1.32,0-2.61,0.54-3.54,1.47s-1.46,2.22-1.46,3.53c0,1.32 0.53,2.61 1.46,3.54 0.93,0.93 2.22,1.46 3.54,1.46z"/>
    <path d="m465.5,432.691h-23.5v-162.654c9.895-1.542 17.5-10.097 17.5-20.418v-203.621c0-11.408-9.281-20.689-20.689-20.689h-41.621c-11.408,0-20.689,9.281-20.689,20.689v203.621c0,10.321 7.605,18.876 17.5,20.418v162.655h-23.5c-4.143,0-7.5,3.358-7.5,7.5s3.357,7.5 7.5,7.5h95c4.143,0 7.5-3.358 7.5-7.5s-3.358-7.501-7.501-7.501zm-74-183.072v-203.621c0-3.137 2.553-5.689 5.689-5.689h41.621c3.137,0 5.689,2.552 5.689,5.689v203.621c0,3.137-2.553,5.689-5.689,5.689h-41.621c-3.136,0.001-5.689-2.552-5.689-5.689zm17.5,183.072v-162.382h18v162.383h-18z"/>
    <path d="m337.914,364.691h-21.223v-125.798c0-10.799-8.785-19.584-19.584-19.584h-121.214c-10.799,0-19.584,8.785-19.584,19.584v125.799h-21.223c-11.47,0-20.801,9.331-20.801,20.801v41.398c0,11.469 9.331,20.801 20.801,20.801h202.828c11.47,0 20.801-9.331 20.801-20.801v-41.398c0-11.47-9.331-20.802-20.801-20.802zm-166.605-125.798c0-2.528 2.057-4.584 4.584-4.584h121.215c2.527,0 4.584,2.056 4.584,4.584v125.799h-130.383v-125.799zm172.406,187.998c0,3.198-2.603,5.801-5.801,5.801h-202.828c-3.198,0-5.801-2.602-5.801-5.801v-41.398c0-3.198 2.603-5.801 5.801-5.801h202.828c3.198,0 5.801,2.602 5.801,5.801v41.398z"/>
    <path d="m315.226,384.191c-12.131,0-22,9.869-22,22s9.869,22 22,22 22-9.869 22-22-9.87-22-22-22zm0,34c-6.617,0-12-5.383-12-12s5.383-12 12-12 12,5.383 12,12-5.383,12-12,12z"/>
    <path d="m315.223,401.189c-1.32,0-2.6,0.54-3.53,1.47-0.93,0.93-1.47,2.21-1.47,3.53s0.54,2.61 1.47,3.54c0.931,0.93 2.221,1.46 3.53,1.46 1.32,0 2.6-0.53 3.54-1.46 0.93-0.93 1.46-2.22 1.46-3.54 0-1.31-0.53-2.6-1.46-3.53s-2.22-1.47-3.54-1.47z"/>
    <path d="m157.773,384.191c-12.131,0-22,9.869-22,22s9.869,22 22,22 22-9.869 22-22-9.869-22-22-22zm0,34c-6.617,0-12-5.383-12-12s5.383-12 12-12 12,5.383 12,12-5.382,12-12,12z"/>
    <path d="m157.772,401.189c-1.319,0-2.609,0.54-3.54,1.47-0.93,0.92-1.46,2.21-1.46,3.53s0.53,2.61 1.46,3.54c0.931,0.93 2.221,1.46 3.54,1.46 1.32,0 2.61-0.53 3.54-1.46 0.931-0.93 1.46-2.22 1.46-3.54 0-1.31-0.529-2.6-1.46-3.53-0.929-0.93-2.219-1.47-3.54-1.47z"/>
    <path d="m286.846,273.488l1.229-1.23c3.251-3.252 5.042-7.573 5.042-12.167 0-4.594-1.791-8.914-5.043-12.167-3.249-3.25-7.57-5.039-12.166-5.039s-8.917,1.79-12.166,5.039l-1.23,1.23c-7.797-4.045-16.639-6.346-26.012-6.346-9.373,0-18.213,2.3-26.009,6.344l-1.229-1.229c-6.712-6.712-17.633-6.711-24.343,0-6.712,6.712-6.712,17.632 0,24.344l1.23,1.23c-4.042,7.795-6.341,16.633-6.341,26.003 0,9.371 2.299,18.21 6.342,26.006l-1.233,1.233c-6.712,6.712-6.712,17.632 0,24.344 3.355,3.356 7.764,5.033 12.171,5.033 4.408,0 8.816-1.678 12.173-5.034l1.233-1.233c7.795,4.043 16.634,6.342 26.005,6.342 9.373,0 18.213-2.3 26.01-6.344l1.234,1.234c3.252,3.251 7.572,5.042 12.167,5.042s8.915-1.791 12.166-5.042c6.709-6.709 6.709-17.624 0-24.333l-1.232-1.232c4.046-7.798 6.348-16.641 6.348-26.016-0.001-9.374-2.301-18.215-6.346-26.012zm-5.843-18.492c1.363,1.363 2.114,3.173 2.114,5.095 0,1.767-0.641,3.433-1.801,4.75-2.945-3.799-6.359-7.213-10.158-10.158 2.828-2.484 7.147-2.386 9.845,0.313zm-89.014-.001c2.702-2.702 7.026-2.8 9.855-0.313-3.803,2.948-7.221,6.365-10.168,10.169-2.487-2.831-2.388-7.155 0.313-9.856zm-.001,89.016c-1.36-1.361-2.11-3.172-2.11-5.101 0-1.773 0.641-3.443 1.801-4.759 2.948,3.804 6.365,7.222 10.169,10.169-2.831,2.493-7.158,2.394-9.86-0.309zm-2.179-44.511c0-25.746 20.945-46.691 46.691-46.691s46.691,20.946 46.691,46.691-20.945,46.691-46.691,46.691-46.691-20.945-46.691-46.691zm91.196,44.51c-1.362,1.363-3.172,2.113-5.095,2.113-1.769,0-3.438-0.642-4.755-1.804 3.8-2.945 7.214-6.359 10.159-10.158 2.489,2.827 2.392,7.149-0.309,9.849z"/>
    <path d="m236.5,259.441c-22.089,0-40.06,17.97-40.06,40.059s17.971,40.059 40.06,40.059c22.088,0 40.059-17.97 40.059-40.059s-17.971-40.059-40.059-40.059zm0,70.118c-16.575,0-30.06-13.484-30.06-30.059s13.484-30.059 30.06-30.059c16.574,0 30.059,13.484 30.059,30.059s-13.485,30.059-30.059,30.059z"/>
    <path d="m236.5,281.01c-10.195,0-18.49,8.294-18.49,18.49s8.295,18.49 18.49,18.49 18.489-8.294 18.489-18.49-8.294-18.49-18.489-18.49zm0,26.98c-4.682,0-8.49-3.809-8.49-8.49s3.809-8.49 8.49-8.49c4.681,0 8.489,3.809 8.489,8.49s-3.808,8.49-8.489,8.49z"/>
    <path d="m273,388.691h-73c-2.762,0-5,2.239-5,5v25c0,2.761 2.238,5 5,5h73c2.762,0 5-2.239 5-5v-25c0-2.761-2.238-5-5-5zm-5,25h-63v-15h63v15z"/>
  </g>
</svg>
